/* XPM */
static char	*banner_wall2[] = {
"64 64 62 1",
" 	c #000000", /*  0 */
".	c #543C1C", /*  1 */
"+	c #F0945C", /*  2 */
"@	c #BC7848", /*  3 */
"#	c #DC8854", /*  4 */
"$	c #B47044", /*  5 */
"%	c #FCA470", /*  6 */
"&	c #5C4020", /*  7 */
"*	c #6C4824", /*  8 */
"=	c #744C28", /*  9 */
"-	c #80502C", /* 10 */
";	c #885830", /* 11 */
">	c #905C34", /* 12 */
",	c #9C6038", /* 13 */
"'	c #A0643C", /* 14 */
")	c #A86840", /* 15 */
"!	c #D08050", /* 16 */
"~	c #C87C4C", /* 17 */
"{	c #FCF400", /* 18 */
"]	c #FCA85C", /* 19 */
"^	c #FCFCD8", /* 20 */
"/	c #E88C58", /* 21 */
"(	c #FC8820", /* 22 */
"_	c #545454", /* 23 */
":	c #7C7C7C", /* 24 */
"<	c #646464", /* 25 */
"[	c #CC6000", /* 26 */
"}	c #9C4C00", /* 27 */
"|	c #A8A8A8", /* 28 */
"1	c #383838", /* 29 */
"2	c #484848", /* 30 */
"3	c #2C2C2C", /* 31 */
"4	c #000000", /* 32 */
"5	c #A80000", /* 33 */
"6	c #FC0000", /* 34 */
"7	c #B00000", /* 35 */
"8	c #640000", /* 36 */
"9	c #403018", /* 37 */
"0	c #E00000", /* 38 */
"a	c #980000", /* 39 */
"b	c #7C0000", /* 40 */
"c	c #700000", /* 41 */
"d	c #BC0000", /* 42 */
"e	c #D40000", /* 43 */
"f	c #C80000", /* 44 */
"g	c #FCFCFC", /* 45 */
"h	c #B4B4B4", /* 46 */
"i	c #989898", /* 47 */
"j	c #880000", /* 48 */
"k	c #EC0000", /* 49 */
"l	c #FC2020", /* 50 */
"m	c #FC5C5C", /* 51 */
"n	c #ECECEC", /* 52 */
"o	c #DCDCDC", /* 53 */
"p	c #D0D0D0", /* 54 */
"q	c #707070", /* 55 */
"r	c #C0C0C0", /* 56 */
"s	c #202020", /* 57 */
"t	c #483818", /* 58 */
"u	c #8C8C8C", /* 59 */
"v	c #382C14", /* 60 */
"w	c #A40000", /* 61 */
".+@@@@@@@##+++++++###++#####+++@$%##############@@@@@@@#####@@@$",
"&@*===---;>,,,,,,>')@##!~#!~@$)=.!)))))))$$$$$$)'',,')$$)'>;---&",
"&@===--{--------=-;)@##@@!#~@)'=.!))$$$@~~!#!!!~@@@@@!~$'{;;;;;&",
"&@====]^-=======-;,)$$),'$@~@$)=&#~~!#!!###/#####/#!!!@',^],,,>&",
"&@--]{^^({{{_:_{{{{{{{{{{{{{{{{{{{{{{{{{{{{{{{{{{{{<:{{{^^{{],>&",
".@--[[[{}}}}|_121}}}}}}}}}}}}}}}}}}}}}}}}}}}}}}}}13 2,}}}][[[>>&",
".@---&&(&&&==56721 =======---;>*.),,>>;>>>--=== 31879.**=}&*>>>*",
".@------;>,$@66007abb,')))$$$$$;&+!~$$)!~$))))c777d7.*;>>>>;;;;*",
".@===---;,)$$6600efd7557de6g2g6ed5h i5ja7fekll660ed7.*;>>;----;*",
".@=====->)$),6600efd7557de6g2g6ed5h i5ja7fekll660ed7&=>;;---=--*",
"&@===-->'))>;6600efd7557de6g2g6ed5h i5ja7fekll660ed7&=,;---==--&",
"&@-->,'))'>;-6600efd7557de6g2g6ed5h i5ja7fekll660ed7&-),;-----;&",
"&@;,)$@@)>---6600efd7557de6g2g6ed5h i5ja7fekll660ed7.=))),;;;;;&",
"*#))))@@)----6600efd7557de6g2g6ed5h i5ja7fekll660ed7.=$~@),,,,>*",
"*+),;>)$,-=--6600efd7557de6g2g6ed5h i5ja7fekll660ed7.=@!@)',,,,*",
"*#>-->));===-6600efd7557de6g2g6ed5h i5ja7fekll660ed7.-@$)',>>,'=",
"&@==-,$,-*==-6600efd7557demg2g6ed5h i5ja7fekll660ed7&-),>>>;;>,*",
"&@*=-'$,=*=-;6600efd7557dmgg2gnnoph ii<a7fekll660ed7&=,;;>>>>>,*",
"&@*=;)$>=*=;'6600efd7557qog_2gnnoph|  :q2fekll660ed7.*;;>,,,>>,=",
"&@*-,@$>==;'$6600efd755qr32gi2113ss ii  iqekll660ed7t&;;>,,,>,$-",
".@*-'@);-;'$$6600efd75qr3qg_2gnnoph|  :q |qkll660ed7t&;>>,,,,)~;",
".@*-'$';;'$),6600efd75h qo2gg_11uph|iq qq hkll660ed7.*>,,,,'$~!-",
".@=;)$','$),-6600efd7| qr3ggu211_ph|ii: iq pll660ed7.='',,'@##@*",
".@-'$)))$),-=6600efd<| r3ogu221_uph_ 3:q | pil660ed7.=)),,$!#@'&",
"&@'$@$$$),-=*6600efdu h rou_22_uop_   3qi h nl66ked7.=)),,$!@,-&",
"&#$@@@$),;-=*gggphiuu h r|2_22_uo_s    3i q nnnop|uq.=)),'$@';;*",
"&+$$@$),;--==  111   | rrou_221__ss     3q p2<__3   .=)',)$$',)-",
"*+$$$)>;----;gggphiuu| rrogu22113ss 3    | pnnnop|uq.=),,$~~$$$-",
"*%$$'>---;;,)6600efdu| rroggu2113ss3i3   | pnl660fd7.=)))@!!@$)*",
"-%$)>--;;>,)@6600efdu| r3uggg_113s3<ii333| pnl660fd7.-$$$@@$),>&",
"-%)>;-->,')$~6600efdu| r33ugu2113ss <i:qi| pnl660fd7&;~@$),>>;;&",
"&@*&&&&**==;;gggphiuu| r332_2211_ss  <:qi| pnnnop|uq.*>-=**&&&&t",
"&$.tttt....&&  111   | r_32_221uo_s   :qiq p2<__3   9.*&...ttttv",
"=+@@@@@@@!##+gggphuuu q r_2_22unop_    qi h nnnop|uq=)#!!!@@@@@;",
"&@-------;$/+6600efdu h rou_2unnop_    qi h nl660ed7=,$))',>;--&",
"&@------->$##6600efd7| r3oggggnno_s   :q | pul660ed7=,$$))',>;;*",
"&@=----;,)$$$6600efd7| rr3ggggnnoss  i: iq nll660ed7*;$$$$$@$))=",
"&@=--;,)$$)',6600efd75h ro2gggnno_s i2 qq hqll660ed7&=$$$~!!!~@-",
"&@-;,)$$$),,,6600efd75mr3og_2gnnoph|  :2 |ukll660ed7.=$$~!~@@$$=",
"&@;'$$$)',,,'6600efd755mr32gg2113ss ii  iuekll660ed7.=$~~@$)',>&",
"&@'$$),,>,,,,6600efd7557mo|_2gnnophq  :qqfekll660ed7*>~~@$),>;-.",
"&#)),;;>>,,>>6600efd7557deig2gnnoph ii<a7fekll660ed7=>~@$),>;-=.",
"*+'>--;>>>>;;6600efd7557de6g2g6ed5h i5ja7fekll660ed7&;$$)),>;--.",
"*#;--;>>>>;;;6600efd7557de6g2g6ed5h i5ja7fekll660ed7.-$$$$)))',*",
"&@--;>,>>>;;>6600efd7557de6g2g6ed5h i5ja7fekll660ed7&;@~@$$$$$$=",
"&@-;>,,,>>>,)6600efd7557de6g2g6ed5h i5ja7fekll660ed7&-))))',,,>*",
"&@;>,'',,')$$6600efd7557de6g2g6ed5h i5ja7fekll660ed7.=,>>;;;---&",
"&@>'))'')$@$$6600efd7557de6g2g6ed5h i5ja7fekll660ed7.=')'',,>>>*",
"&@'))))$$@$)>6600efd7557de6g2g6ed5h i5ja7fekll660ed7.-$$$$))))$=",
"&#))$$@~@$'>-6600efd7557de6g2g6ed5h i5ja7fekll660ed7&='',,>>>,)*",
"*#)$@~!~$),;-6600efd7557de6g2g6ed5h i5ja7fekll660ed7.*;--=====-&",
"*#$~!!~$)),>;6600efd7557de6g2g6ed5h i5ja7fekll660ed7t&---=*&&&=.",
"*+~!~@$$)),>;6600efd7557de6g2g6ed5h i5ja7fekll660ed7.&----=====&",
"*+~@$$$$))'>;6600efd7557de6g2g6ed5h i5ja7fekll660ed7.=>;-------&",
"*+$$)$$$)),>;6600efd7557de6g2g6ed5h i5ja7fekll660ed7&-'>>>>>;;;&",
"*#)')))))',>>>,-.........aa| |aaaa< <....bwell660ed*.=))))))',,*",
"&@>>,,,,''''))$)'=*=======.....9v&t................*=;'$$$$$$)'*",
"&@;;;>>,')$@@$)>;------;>;===*&tv;&*->-=***&&&&&***==-;,')))$$)*",
"&@;;>,')$$$@@);------;;>>,>>;;-&t@-,,;=&&*===------==---;;;>)$$=",
"&@,)))$$$)')'>---;;;;;>>>>>;---&t@,,;=&&**====--------------;,)-",
"&#)))',>;---;;;;;>>>>;;;;---;--&.!'>-=========----------------;*",
"*#>;--===*=--;>,,,,>>>;;;-->,''=.!,-------=====----------======&",
"*#>;--===*=--;>,,,,>>>;;;-->,''=.!,-------=====----------======&",
"&@&.....&&*=->'))))))))'','))$$=.@--=-----===*===============*&t",
