/* XPM */
static char	*brick_wall2[] = {
"64 64 47 1",
" 	c #000000", /*  0 */
".	c #383838", /*  1 */
"+	c #545454", /*  2 */
"@	c #484848", /*  3 */
"#	c #A40000", /*  4 */
"$	c #980000", /*  5 */
"%	c #700000", /*  6 */
"&	c #A8A8A8", /*  7 */
"*	c #989898", /*  8 */
"=	c #7C7C7C", /*  9 */
"-	c #EC0000", /* 10 */
";	c #E00000", /* 11 */
">	c #D40000", /* 12 */
",	c #C80000", /* 13 */
"'	c #BC0000", /* 14 */
")	c #880000", /* 15 */
"!	c #7C0000", /* 16 */
"~	c #640000", /* 17 */
"{	c #4C0000", /* 18 */
"]	c #2C2C2C", /* 19 */
"^	c #8C8C8C", /* 20 */
"/	c #646464", /* 21 */
"(	c #707070", /* 22 */
"_	c #B00000", /* 23 */
":	c #580000", /* 24 */
"<	c #4C4C4C", /* 25 */
"[	c #400000", /* 26 */
"}	c #28200C", /* 27 */
"|	c #343434", /* 28 */
"1	c #404040", /* 29 */
"2	c #202020", /* 30 */
"3	c #5C5C5C", /* 31 */
"4	c #FCA85C", /* 32 */
"5	c #DC8854", /* 33 */
"6	c #C87C4C", /* 34 */
"7	c #BC7848", /* 35 */
"8	c #A86840", /* 36 */
"9	c #744C28", /* 37 */
"0	c #B47044", /* 38 */
"a	c #885830", /* 39 */
"b	c #6C4824", /* 40 */
"c	c #9C6038", /* 41 */
"d	c #403018", /* 42 */
"e	c #5C4020", /* 43 */
"f	c #543C1C", /* 44 */
"g	c #A80000", /* 45 */
"h	c #303030", /* 46 */
"................................................................",
"+.+@@@@@+@@@@@@+@.@@@@@@@++++++@@@@@@@@@+++++++@@@@...@@++@@@@@.",
".##$$$$$$$$$%@@+&&******************=@.+----;;;;;;>>>>>,,,,'''#@",
"@#)!!$~%$~)%{]@+&^/^/^/^/^(^(^/^/^^=+]@.>#,_,__,%,!,_,)_#!,$,#!]",
"@$%:%~%%:%~:{]@+*^//=/+==+(==+(=+=(+<]@+>##!~#)%)#!)##)#!)#:#%~]",
"@$:%%:%%%:%[}]@+*/^=/=+=/=+=+//=+(/+<]@@>%#~)#~#%#!#)#~#$!#!#%{]",
"@)%:~%:%:~%:}]@+^^/=//(=+/+=/+(//+=+|].@'%#!#)~#%%##%#)##!#:#){]",
"@!:%%:%%:%:[}]@@^^/=+=+=+=+(/+/=+(/+<].@'$#~)#!)%)!#)#~#!)#!#%[]",
"@!%:~[::[:~:}].+((++1/++/+1+/+/+1/++|].@'%%:%%{){%:){%{)~{%)%)[]",
"@:{{{}}}}}}}}].@/<<<<<<<<<<<|||||||||].@)~~~~~~~~~~:::::::::[[[]",
"@@]]]]]]]]222].+@]]]]]22222]]2222]]]]]@+.]]]]]]]]]]]22222]]]]]]]",
"+....@@@@.....@.@@@@@@@...+@@@..@@@@@@+.@++++3//3++@@1.1+.+@@@+.",
"->>>'''''''''''#@+@4455555566666667777777777777777778@1+-->>>>>>",
"_))_$!_!$)_~_)#[.@+4906a7ba7aa6c8aaa8a8a8a6b6ac76c68d.@.-,!_)_)_",
")#)#!))~#)~)##%[]@@5098a88a8b89ba8a8a8b88ab8a89a8989d.@+,_!#)!#$",
"%##)$~#!))$~#)%[].@598acaabaa98ab8aabaaa8eaa89898899d]1@,!###!#!",
"#))#)!!)!#$~#~%[].@5988a8ba8b98ba8aaa8b8ae8b89a98989d].@,_!#!#$!",
"%#~#%)!$~#~)##%[]@+50e8a8abaea9b8aaea8baea8ba89a8989d2.@_!##:#!)",
"%_~%{!%$%$%:$%%[]@+089ae9c9ab9ae9c9cba9aaec99af9c9a9d21+_#!%:%$%",
"[{{{{{{{{{{{{[[[.@+8bbbbbbbbbbbbbeeeeeeeeeeeeeeeeeedd2@.#~[~[[~[",
"]]]2]]]222]]]22].@.@.|]]]]]]||..|]]]22222]]]2222]]]]].@+@]]]]]]]",
"++@..@+.+.@@....@@+@@@1.1.1.1@@@+.+@1...11@@+1..1@@@+@+.+1.1+@@@",
"+&&*******^^^^^^^^^^^^^^^^^=@++gg$$$$$$$$$$)))))))))))))))))))!@",
"+&/=^/^/^/=/=/=*/=/=/^=<=*+..@+g)~$!)%!)%)!)~:!%~%!~%!!%!~%!{![]",
".&=/=(=/+/==/(/=/<=+=/</=+=.]@3$)!!:!:%~!%:!:%!:!~!~!%!:!!~!~~[]",
"@^<==+/<=<=+=/(=</=+/=/</=+.]+/$)~!~!:!~!!~!~!%:!~~!!~!%!!~!{~[]",
"@^=/=1=<+/=/+/=//</=<=/<=+<.]+3$~!~!%:%!~!:%:%!~%~%~!%!:!~%!~~[]",
"+^+<=1//=<=<=<=/</=/<=<///=.]@+$$~!~!%!%~!:!{~~{!{!{!{!!%:{~%~[]",
"@*=<+++<+1++/</++/++<+(+(++.].+$!~!~%{~~~~:%~%{!{~!{~%{!{!{!~~[]",
"@=(<<<<<<<<<<<<<<111111111..].+!::::::::::::::{{{{{{{{{{{{[{~{[]",
"@@.]]]]]]]]]]]]]]]]]...]]]]]]@@@]]]]]]]]22222]...]222]]]]]]]]]]]",
"+++++@@.@...@+//+++@@@11..1..1+@@@+.+@+@1.1.1@++@@1.1@@@+.+@@@+.",
"''''''''''#@.+55555555777777777777777778@++,->>>>>>>>>''''''''''",
"#_#_$,__,#[.@.58b8988b8a8898ab88b8898a8d.@+>#!#%##~#!)!#%#)#!#%#",
"#!)#$#!#)%[]@+5b8aa8a8c98aa9aa8ab89a8b8d.++>#:#%#)~#)#!))$%$!$)%",
")!#$!#!$#%[]@.5b88ac89898a8e8faa8a9c8a8d.+/>#!#%#)#)##!#%$)#$!#%",
"#)!#$#$!)%[.@+5cb8a8aecaaa9a8b8abac9a8ad.+/>!##%#~##!!#!#)$$)!%)",
"#)!#!#!$#%[.@@5b8aec89aa8a89afbcb8c98a8d.@+,#!##%#))!#!#%$)#!)#%",
"%%)$%%$%%%[.@@cb88e8a9898b8eab8abc9c8bad]@+,#:#%##)#)#!#%$%$!##%",
"[[{{{{{{{[[]@@8bbbbbbbbbeeeeeeeeeeeeeedd]@@#~~~~~~~~~~~~~~~::::[",
"]]]]]]]]]]]]@+@]2222]]...]22222]]]]]]]]].@@@]]]]..@.]]222]]]]]]]",
"+@+.@..@@....@@...@@@@@++@@...+@@@+.@.@.@@+@+.+@+3/+<@@.+@+@+.+.",
".g!!$$$$$))))))))))))))))))))))!.+.-->>>>>>>>'''''''''''''''''#@",
"+$~~%!:!!~!!~!~%!:!~!%!:!:!!~~![.@+-##~#~#:#%#:#):$)%#)!#!$%)#[]",
"@$~{!%:!%!~!:%{!!:!{%!%:!~!~!~![]@@>)#~)~!:):$!#:#~#%)%#)!$#~)[]",
"@$~{!:%~:!:!%~%!:!%%{~!{!{%:%%~[].@>)#~~)#!:#!:$#:#%%#%#!#%)~#[]",
".$~~!%:!%~!!~!{%!:!{%!{!!~!!!~~[].@>#~#)~#:#%$!!:)~#!)$)$!%#)#[]",
"+$~{%!:!:!:!:!~!::!{%~!~%:!:%~![2.+>#~~#~!:#:#:$:#~)%#%!#!$)~%[]",
".$~{!:%~%!~!%%%!!:%~{:!{!~!~!~![2.+,%#~)~#:!#!:$%)~#%#%#!$%#~#[]",
"+!{{:::::::{{{{{{{{{{{{{{{{{{{{[]@+#~~~~~~~~~:::::{{{{{{{{{{{[[]",
".@]]]]]]]]]]...]2222]]]2222]]22]]@.@]]]]]]222]|.|]2]]]]222]]]]]]",
"+.+.+@+@@@@+//+@+.+@+@1...1@+@@.@@+.+@@@@@@@@<+++<@@@@.h22h.@@+@",
">>>>>''''''''''''#@+@44555555557777777777777778@.+->>>>>''''''''",
"!#:##~$~#!,!#~#!#[]@@58888b8f8a8b8b8f8b8b8e89bd.@+>#~)#:#%#%#~#%",
"#!!#!#~$!~#:!~)~)[]@@5a898b9faca8abffbaa9ae8b8d|@+>~#:#%#%)#%#){",
"#!:!#~$~!#!:#)~$![]@15aa98baa8e8f8ff8b8baeaab9d]@+>~#%%##)%)%~%)",
"!$:$~~#~#!#:!%~#~[]@158f98b8f8acb8ffab8b8ae9cbd]@+>#~:#)%%#%#~%#",
"~#!#~#~)#~#!:)#!)[]@15f88b8a9aeaffffbaaba9ea9bd]@@>~#)#%#)%%:#%#",
"~#!!~$$~$~!:#~#~$[]@@5f898baaafcfff8ab8ab8e8ead].@>~#:%:#%#%:~#{",
"!$:#~~)~!!#:#~%)![]@+68f98b8fab8bf9b8ba8ba9abad].@,~~:#:#%#%#~#%",
"{{{{{{{{{{{{{{{{[[]@@8dddddffffffffffffffffffdd2@+#[[{{{{{{{{{{{",
"]]]]]]]]]]]]]]]]]]]@+@.||]]]]]]]]]]]]]]22222]222.@@]]]]]]22222]]",
".+.+...@@@@@++.@@@@+++++@@@+@@@+@@.@@@1..1..1@1.1+@@.+@@@@1.1@@@",
"++++++++++++++++++++++++++++++++++++++++++++++++++++++++++++++++"};
