/* XPM */
static char	*stone_wall2[] = {
"64 64 17 1",
" 	c #000000", /*  0 */
".	c #2C2C2C", /*  1 */
"+	c #545454", /*  2 */
"@	c #202020", /*  3 */
"#	c #484848", /*  4 */
"$	c #DCDCDC", /*  5 */
"%	c #A8A8A8", /*  6 */
"&	c #707070", /*  7 */
"*	c #C0C0C0", /*  8 */
"=	c #D0D0D0", /*  9 */
"-	c #7C7C7C", /* 10 */
";	c #383838", /* 11 */
">	c #8C8C8C", /* 12 */
",	c #646464", /* 13 */
"'	c #B4B4B4", /* 14 */
")	c #989898", /* 15 */
"!	c #ECECEC", /* 16 */
"................................................................",
"+++++++++++++++++++@@@@@++++########++++++++++++++++++++++++++++",
"+$$$$$$$$$$$$$$$$$$$$%&@+#%*$$$$$$$=%-#;++&%$$$*%>>&,+#########+",
"+$$$*****************&+@+%$$=========%-;#+%$$$$$$$$$$$$$$$$=**')",
"+$$*>)%%%%%)%%>%>%%%>++@+'$*>%>%%%>%%-+;#+$$=%>%>**=$$$$$$$$$$$$",
"+$*%%%->%%)%)%%)%>->%++@+'*>))%>%>%%>,+;#+$$>>%>>>>%>>>%%>>%%>>%",
"+'*>%>%-%>))>>-)>%>%>&+@+'*%>%>%>%>>%,+;#+$$%>>>)>%>>%>->%>->%>>",
"+'*)%%>%>>>))>-)%>>>>-+@+'*>%%)>>>>%>,+;#+$=%>>>)%>>)>%)%>%)%>%)",
"+>*>)>%>%)%)%))>>>)>)-+@+'*>%)>>--%>),+;#+$=)>>>%>>)--%))%%))%-)",
"+>*>>)>>>>>>)>>%>))>)>+@+'*%)>>>-->>>,+;#+$=>->)%>>>->>%>%>%>%>)",
"@&*%>)%%)>)%>)>))%>)>>+@+'*>>%>)>))->,+;#+$=>)%>>%)>>%)>)))>)))>",
"@+*>)>%>>)%>>>-)%>)>>>+@+'*>%>->%>>-%,+;#+$=>%>%>>>)>>)>&&,,++++",
"@+*-%%>)>)%%)>)%>>>))>+@+'*%>%>%>>>%>++.#+$=%>>&,,,++++++++++##;",
";+-+++++,&--)%%>%>%%>-+@#'*>>>)>%-%>)++.#+$*&,++++++++##;;.@@@@@",
";@@@@;##++++++++++++++.@#'*>>%))%>>)>++.#+*>++;;.@@@@@@@@@@@@@@@",
"+;@@@@@@..............@@#'*%>>-)>%>>-++.##;@@@@@@@@@@@@..;;;;;#+",
">-&+#;;@@@@@@@@@@@@@@@;;#'*>)>%))>)>,+#.##++++++++++++++++++&-%%",
"$$$**%>-++++###;;.@@@@;;#'*)>-)>>--),+#.#+++++&>*$$$$*);++-)*!!!",
"$$$$$$$$$$$$$$$$$$$*%#@;#'*%>)>%>--),+#.#+#)'$$$$*%%>>+;+>*$$'*)",
"%%**=$$$$$$$$$$$$$*%&+@;#'*%)>%>>>)>++;.#+)$=%>%>%>>%>+;+%$=**)'",
">%%%)>**%*%*'%)%%)%>++@.#'*>%)>%>%>%++;.#+$$>>%>>)>)>>+;+*$'%))%",
"%>>>>%)>)>%%>)%>%%>%++@.#'*))%->)>>>++;.#+$$>)%))>>%>>+;+*$*>)>>",
">>)>)%%%%)>>%>%>>)>>++@.#'*%%>%>--)>++..#+'$>>%>>)>)>>+@+*$%>>>)",
">%%>%)%>)%%)>>)>%>>)++@@#'*%>%>>-->>++@.#+)$)>>>)>%>%)+@#$$>)%%)",
"%>>%>)>>>>%>%>>>>)>%++.@;'*>>>>)>>>%++@.#+&$>>>))>>>>>+@#$$%>)>>",
">%>>)>%)>%))%>>>%>>%++.@;'*>%-->>%>-++@.#+#$>)%>>%>>%)+@#$$>%)))",
"++++&&>>>>>>>>>>>>>&++.@;'*%>%)->>>>++@.#+#$>%>-&++++++@#$%-++++",
"++++++++++++++++++++++.@;'*>%>>>%>%>++@.#+#>+++++;;;;;;@#%-+++++",
"@@@@@;;;;;;;;;;;;;;;;;.@;'*>>%)->>>)++@.#+#@@@@@@@@@@@@@@@@@@@@@",
"@@@@@@@@@@@@@@@@@@@@@@@@;'*%%>>%>))>+#@.#+#;;;;;....;;;;@@@@@@@@",
"++#;;...@@@@@@@@@@@@@@@@;'*->))>))),+#@.#++++++++++++++++++++;++",
"++++#################@;;+'*>%>)>>-,+#;@;#++&%*$$$$$$$$$$$$$*%.;+",
"++&%'$$$$$$$$$$$$$$$%@;++'*%>%)>,++;.@@;++&%$$$$$$$$$$$$$$*%&..+",
"+#%$$$$$$$$$$$$$$$$%&@;++'*>->>,+#;@@@;+++&$$*%>>>>%>>>%>%>&+@.+",
"+#'$'%%%>%>%%>%>%>%&#@;++'*>>%%+#;@@;+++++%$$>>%>>%>>>%)>>>+;@@+",
"+#$$>%>%%%>%)>>%>>>+#@;++'*%>>>+;@;+)$$*++*$*)>>%>>>)%>>%>>+;@@+",
"+#$$%))>)>%)>%>>>%>+;@;++'*>)>>+;@+$$$*)++$$>)>)>)>>>)>%)%)+;@@+",
"+#$$>)>%>)>>)>>>%)>+;@;++'*%>&,+@@)$>%%-++$$>%>)>%%)>>>))>)+;@@+",
"+#$%>>%>>>>>>>)%>>)+;@;++'*>),+;@@$%%));+#$$>)%))%)%>)>>))%+;@@+",
"+#%&&&>>)>%>%>%>%>>+;@;++'*)>,+;@>$%))>;+#$$%>>>>>))%%%%)>%+;@@+",
"+#+++#&%%>>>>%>>)>++;@;++''),++.@**)%>&@+#$$>%>>%%>>%>%>%%>+;@@+",
"+#;;@@#++++++++++++#;@;++'',++;@@$>%))+@+#$$%%%>%>%%>%)%>)>+;@@+",
"++++;@@;;;;;;;;;;;;;@@;++'%++;.@;$%))>+@+#$$>)>%>%>>>>)>)>%+;@@+",
"+++++;@@@@@@@@@@@@@@@@;++%+;;.@@+-%%>)+@+#$$>>)>>>>>>>>)>>&+;@@+",
"++++++;;..............;+;;;.@@@;+@#@;++@+#$')&++++++++++++++;@@+",
"++##+++++++++++++++++++;;@@@@;++++@@@@@@+#')&+;;;;;;;;;;;;;;;@@+",
"+)****')&,++++++++++##############++;;@@+;;@@@@@@@@@@@@@@@@@@@;+",
"+*$$$$$$$$$$*)&++++#%$$$$$$$$$$$%>&###+++;;.@@@@@@@@@@@@@@@@@;;+",
"+*$$==========='+;+#$$**********$$$$$%&##;++;...............;;++",
"+*$=)>>>>%%)>%>,+;+#$*>%>%%)>)%>%>******&##;++++######+########@",
"+*=)>>)%%%)>>>>,+;+#$*)%%>%>%%>%>>>>%>%>*%#@;++-%%%%%%%%%%%%%%-@",
"+*=>)%>>>)>>%>>,+@+#$*>)>%>%>>>>-)>%%>>>>&+@;+-%$$$$$$$$$$$$$*+@",
"+*=%>%%>%)>%>)-+;@+#$*>>%>>>>)>>%%%->%>>)++@;+%$$%>%>>>%%>>%>>+@",
"+*=%%)>)>>>>%>&+;@+,$*>>)>>>>)>>%)>%%%)))++@;+%$*>%>>>>%>%>>%>+@",
"+*=>)>%>%>%>)>&+.@+&$*%>->)>)--))%)%%>%>&++@;+%$>%>%>%)>>%>)>%+@",
"+*=%>)>>>)>%>),+@.+)$*->>%)>>-->)>%>))%>++;@#+%$>)>%)>>>)>%>%>+@",
"+*=>%>)>>>>>%>,#@;+%$*>)%>>%>>%)>%)%>%>%++;@#+%*>>>)))>%>)>)),+@",
"+*=>>)>>>>>>>>+#@;#$$%>%>%>>)>>))>)>%>)>++;@++%-,,,,,,,,,,,,,++@",
"+*=%>>>>>%>)>%+;@;#$%&++++++++++++++++++++@@++-+++++++++++++++;@",
"+*=>>>%>)>%%>,+;@##%&++++++++++++++++++++;@.+;.@@@@@@@@@@@@@@@@@",
"+)',,,,,,,,,,+#;@+#@@@@@@@@@@@@@@@@@@@@@@@@;+;;@@@@@@@@@@@@@@@@@",
"++&####;;;;;;;;.@+#@@@@@@@@@@@@@@@@@@@@@@@@;++;;;;;;;;;;;;;;;;;+",
"+@@@@@@@@@@@@@@@@++#;.....................;+++++++++++++++++++++",
";;;;;;;;;;;;;;;;;;;;;;;;;;;;;;;;;;;;;;;;;;;;;;;;;;;;;;;;;;;;;;;;"};
