/* XPM */
static char	*jail_wall2[] = {
"64 64 30 1",
" 	c #000000", /*  0 */
".	c #383838", /*  1 */
"+	c #00007C", /*  2 */
"@	c #202020", /*  3 */
"#	c #0000A4", /*  4 */
"$	c #000098", /*  5 */
"%	c #000088", /*  6 */
"&	c #000070", /*  7 */
"*	c #000064", /*  8 */
"=	c #0000B0", /*  9 */
"-	c #000000", /* 10 */
";	c #000058", /* 11 */
">	c #0000BC", /* 12 */
",	c #0000C8", /* 13 */
"'	c #0000EC", /* 14 */
")	c #000040", /* 15 */
"!	c #00004C", /* 16 */
"~	c #8C8C8C", /* 17 */
"{	c #7C7C7C", /* 18 */
"]	c #646464", /* 19 */
"^	c #545454", /* 20 */
"/	c #2C2C2C", /* 21 */
"(	c #484848", /* 22 */
"_	c #0000E0", /* 23 */
":	c #4040FC", /* 24 */
"<	c #B4B4B4", /* 25 */
"[	c #989898", /* 26 */
"}	c #C0C0C0", /* 27 */
"|	c #D0D0D0", /* 28 */
"1	c #A8A8A8", /* 29 */
".+++++++++++++++++++++++++++..+++++++++++++..++++++++++++.+++++.",
"@#####################$$$%++@@########$%%%%@@########%%&*@====$@",
" ###%#+##$+$$+$$$++#%++++&*; @##$$%##$%%%%; @#>=>=>>>>>$+ ==%$% ",
" #$+%$$$+##==$+$*%++$$++&**; @#$##%$$+%+#&; @#=>>#>,=>#$+ ##=$; ",
" #%#&$&$++$===$*%&*++++*;;;* @#$%%$$+%+&;*; @#>=#,>=#$%%& %&++; ",
" #%+###*$$+$==$%%+*+**+++*;* @##%##+&&&%*;; @#>#,',#>#$&+ $%&*; ",
" #$%+==##$+++$%&%;++***));!; @###%%+&%%%&*; @#=>#>>#++++& $+;;; ",
" ##$%==#$+**%++$+&&&***)))!; @##%+%%%+%+*;; @#=>=#==+;;&+ $*;*; ",
" #$+$%%%$+***$++*!!&*&+&))!) @#$%%&%##+&+;* @#=,==>#+;;&*       ",
" #%%%#+++++*;*++;))!*+++*;!) @#%%&++%%&*;*; @#=>#=##%$%*; $===# ",
" $+%#**&$++**;%;+))!*&++&;!) @$%+&&%%&+*;*; @#=>>#>#%%+** #=$=% ",
" $%$+****++++++;**!!;;&&;;;) @$%+&&&%;&;&;; @#=>>=#%#$+** $#%$* ",
" $+$+***+*+*+*;&;&;;**)))))) @$+%&&**&*;**; @#=>>#$$+%&;; $#$&; ",
" $$+++&*;;*@@@@@@@@@@@@@@@@@@@@@@@@@@@@@@@@@@@@@@@@@@++;* %%+*& ",
" $+$**&*+*&@~~{{{{{{{{{{{{{{{{{{{{{{{{{{{{{{{{{{{]]^/&*;; +&*;; ",
"           @~]((((((((((((((((((((((((((((((((((((((/*;*;       ",
"#>=#=#####=@{(((((((((((((((((((((((((((((((((((((((/+*;; &,,,,,",
">=#$#>=#%##@{((                                  ^((/+&*; %,,_>,",
">=$$%##%+$$@{((   ./     ./     ./     ./    ./  ^((/+&;* #,_:_=",
"=#$##$$+++$@{((   ^.     ^.     ^.     ^.    ^.  ]((/*;** #,,_=,",
"#%$=>#++$$+@{((   ].     ].     ].     ].    ].  ]((/&**; =,,=#=",
"##%$=##$++*@{((   ].     ].     ].     ].    ].  {((/&;;; >,,=,#",
"=%+%$##++$*@{((   ].     ].     ].     ].    ].  {((/*;;; =,=>=#",
"=#%$+$+$$+&@{((   ].     ].     ].     ].    ].  {((/&;*; =,=#$>",
"==$%=$$$$++@{((   ].     ].     ].     ].    ].  {(((;*;; #,,=,,",
"=#%+%%+*+$&@{((   ].     ].     ].     ].    ].  {((]***; #,=,>=",
"#$+%#$+%$+*@{((   ].     ].     ].     ].    ].  {((.*;** #,,,=#",
"=$=$$##+*+*@{((   ].     ].     ].     ].    ].  {((]**&; %,,,==",
"#%%++##%*&;@{((   ].     ].     ].     ].    ].  {((];;;* %,=,,#",
"#$##%+%%&*;@{((   ].     ].     ].     ].    ].  {(((;;)) %,,>==",
"$%###++**;;@{((   ].     ].     ].     ].    ].  {((/;&)) %,,=$#",
"$%%##%+%%&;@{((   ].     ].     ].     ].    ].  {((/++;! %,=,=$",
"$%#$&++%%*;@{((^]{](^^   ].     ].     ].    ].  {((/*+*! %,=,%%",
"$#$%%+**;!;@{(((((((((   ].     ].     ].    ].  {((/%*;! %,,%$%",
"+$$%+%%&!))@{(((((((((   ].     ].     ].    ].  {((/%+&; &,=,$$",
"+%%+&%%*;!!@{(((((((((   ].     ].     ].    ].  {((/+&*; &,=$$%",
"+%*&+*;&;*;@{((((( (((   ].     ].     ].    ].  {((/***; &==$%%",
"+$+*+*&;*;!@{(( ( //((   ].     ].     ].    ].  {((/&;;; &=$%$%",
"+%$%&+*;!!!@{((/( //((   ].     ].     ].    ].  {((/;)); &=$$$%",
"+$+&*;;;;;;@{(((( (/((   ].     ].     ].    ].  {((/*))! &$$$+$",
"           @{((((/]/((   ].     ].     ].    ].  {((/*;!;       ",
"@@@@@@;;&&%@{(((((/(((   ].     ].     ].    ].  {((/;;;; @&&&& ",
"@@$#=>>>>>>@{(((((((((   ].     ].     ].    ].  {((/*;&; @&;+; ",
"@@#>>>>>=#=@{(((((((((   ].     ].     ].    ].  {((/     @;;;& ",
"@@#>==#==>>@{(((((((((   ].     ].     ].    ].  {((/@@@@@@@@@@ ",
"@@>>>==>>==@{((          ].     ].<    ].    ].  {((/>>>>>>===# ",
"@@>#=#=====@{((   (.     ].    <<<]]   ].    ].  {((/#===##=>#% ",
"@@>>=$%==$>@{((   ^.     ].    ((..(   ]. /..].  {((/##=#$>>$$% ",
"@@>>$#>=%#=@{((   ].     ].    [[[.    ]./]{{].. {((/$#=$%+$&%+ ",
"@@>>>>#%>%=@{((   ].     ].    ]]].    ]. }~~].. {((^#=#$$#+++& ",
"@@>#>$##>=$@{((   ].     ].     {.../^^].  |1].] {((]#$$%#%%$*; ",
"@@>=$$>_>#%@{((   ].     ].     ].   ~~]. @}|].] {((.=#$=+&$$*; ",
"@@>#>#_:_$$@{((   ].     ].     ].  ..~]./{^ ].] {((]$+$+%$$!!; ",
"@@>=>#>_>#+@{((   ].     ].     ]. (/]@]. /}/].( {((]%#%+%#%!!! ",
"@@>#>#==%%%@{((   ].     ].     ].@(@]@].~~}}].  {(((+%$$$%&*;! ",
"@@#>#$#++#%@{((   ].     ].     ].@^@]^]. ]. ].  {((/&+%$+*;*&; ",
"@@>#>=%%=++@{((   ].     ].     ].@...]].    ].  {((/*&+&;))&*; ",
"@@>#>#$%+*%@{((   ].     ]. @@@@].@/((]].](( ].  {((/+&*&;)))*; ",
"@@=#%%%#*%*@{((   ].     ].@@@@@].@//..].1(^(].  {((/+*&;&;));; ",
"@@=#&*%*#++@{((   ].    @].@@@@@].@@@@@]./(^(].  {((/+;*;;;***; ",
"@@##%%*%;!;@{((   ].   @@].@@ ^~].@@@@@]./(^(].  ~^(/&*;*;**!** ",
"@@#$*******@]((]]{{{{{{{{{{{{{{{{{{{{{{{{{{{{{{{~~^(/++***!!!!*@",
"..+++++++++@^((((((((((((((((((((((((((((((((((((^^(/++++++++++.",
"^^^^^^^^^^(./////////////////////////////////////////^^^^^^^^^^^"};
