/* XPM */
static char	*tile_floor2[] = {
"64 64 24 1",
" 	c #000000", /*  0 */
".	c #5C4020", /*  1 */
"+	c #D08050", /*  2 */
"@	c #BC7848", /*  3 */
"#	c #DC8854", /*  4 */
"$	c #FCA470", /*  5 */
"%	c #F0945C", /*  6 */
"&	c #905C34", /*  7 */
"*	c #6C4824", /*  8 */
"=	c #543C1C", /*  9 */
"-	c #A0643C", /* 10 */
";	c #A86840", /* 11 */
">	c #9C6038", /* 12 */
",	c #885830", /* 13 */
"'	c #80502C", /* 14 */
")	c #B47044", /* 15 */
"!	c #C87C4C", /* 16 */
"~	c #483818", /* 17 */
"{	c #744C28", /* 18 */
"]	c #E88C58", /* 19 */
"^	c #FCB080", /* 20 */
"/	c #403018", /* 21 */
"(	c #FC9C60", /* 22 */
"_	c #382C14", /* 23 */
".+@@+#$$$$$$$$$##+@@@+$$%#++##%&*%%%%$%%###+##%#+@@@+##%$%%%%#+.",
"=@&&-@%$$%###+;>,,'',@##);-;)!+&*#)!!!!)-&,,-);&''',>;)!+++!)>&*",
"~@-)@#$$%#!!)-&,''''-#$#);;)@!!&.+-)!!)-,'',-;>,'''&-;)!!!!)->-'",
"~####%##!@);>&,'''',@%%+);;))!){=@&-);>,'{'&-->&'''>;)))@@)--;!>",
"=$$%##!);>&&,'',,',)#$]+@)))))-.~@&-;>,'{'&---->,',-)!!)));-)!#;",
"*^%#!!)-&,,,'',&&&-+%%#+!!!);>'=/@>--&'''-))--;-&,&;!!!!)))@#%#&",
"*$#!);>&,,''',&--;+#]##++!);&'*=/@>--&',;!!)-;;-&,>;!!!!))!#%#@*",
"*$!)>&,,,''',&-);@#%##++!!-,{**=~@>;->&-@!@;-;->&&>;)!!)@!#%#@>*",
"*%)-&,,,''''&-)!!+%%+!!!@;,{**{=~@>)))))));->>>>&&&-)))!!#$%!;&*",
"*#-&,,,,''',-)!+#$$#!));-&'***{=~@;!+!);->&&&&&&&,&;);)!#%$#)-&*",
".+&,'''''',>)!#%$$%!);-&'{****{=~+@!!)-&,',,&&&&,,-));)++##@->&*",
"=@'''''''&-)!+]($%!)->,'{*.**{{.=#));&,'',&>->&,,&;)))!!!+#)>>>{",
"~@'{''',&;)!+#%(%!)-&,'*.=.*{',*.#;>&,',&-;);>,',-)!!!+!;@+@->>*",
"~@{{',>-)!#]#]$%+;&,,'{.==*{'>)&.#>&,,&>;)))-&,,>)!!+++!;@+)->>{",
"~@{'&;)!#%%%]%%+-&,'''*==.*'-!+&.+&,,&-)!!)-&,,>)!!+++!)@++;->>{",
"~@,>;!+#%%]#%$#;&,'''{*=.*'&)++,=@,,&-)!!)>,,&-)!+++#+@;@#@->>-{",
"=+-;)!#]#!!!%%+>,,''{*..*',;!+)*~@,&-)!!!;&,&-!+#++##!;-@+;>>-;*",
".#)))!#+)--!%#)&,''{*=.*',-@!)-.~@&-)!!!)-&>;!###+!!!;>)@)>--;-*",
".%!))!+!>,;#%+-&,'{*==*'&;)!)>'.~@>)!!!));)@+###!);->&-@;>-))-&.",
".%!))!!-,-#$#)>,'{*.=.*,)!!)>''.~+;!!!)))!!+##!);>,''-@;&>)!;,'.",
"*$!!!!@))#$%@>,'{*...*'-!!)>'''.=#!!!)))!!!++@-&,'''-)-&&-@)&''.",
"*$###%#+#%%!-,'{*****'&)!)>,',&*.%!!))@!!!!!!-,''''-)-,,&;)-'{{.",
"*$#($$#@)!+)&'{{****{,-!!-,',&;'*#;;)!++!)@!)&''&-)@-'',&;;,**'.",
".%%$$#)&-!!>'{{{{*{''&;)-,',&-),.+>;!##+@)!!;,'&@++@&'',>;>{.*'*",
".$$#@&',;!)&'''{{{',>-->,',&>;)'=@>@]%#!))!@;--)+)-&'''&-;&**'>'",
"*$%)'{{&)!;,'''{{{,-);>,,&>-;))*=@;+%#!);)!!+#+@-,'{'',>;-'*{&)&",
"{$@,**'>!!-,''{{{';!!;>&-;;));-*~+@##!;;)!###+)>,''{'',>)-''&)!&",
"{$&{*',;!@>,'''',-@!)--))!!!);&.=#+#!;-)+##@)-,''''''',-))--)!!{",
".+'{',-)!)&''',>;));>-))!!!!)>,*=%##!@@@@@)>,''''''',,,-!+!!!!;.",
"=@''&>;!!;,',&;!+!;&,>;);;)!;&,*.$]%%#@);;>,''''''&--->)+#!!+!-.",
"=@&>--)!!>,&-)!##!-,'&>>>;))-,,**$%%#)->--&,'''''&;))))@!+!++!>.",
"/*****'&'**{&&&&&'*.....*{,'*.**=@;,*..*{*......*{''**{&&&&>&'*~",
"_=====.*.=.**....=~~~~~~==.==.*=~'*=~~====~~~~======~~=******=~_",
"=###++#$$%%#####+@@@@@@@@+###$$&*$$+@+##+@@@@+##+@@@@@#%%%$$%+@.",
"=#))>>)##!)->-->&''{{',-)@++##+&*$@>-;)-,''&-))-'{*'&)!!))!+)&,*",
"=#));)+]+);>>>>&,'{{'&)@+##+@+!&{$@;));&''&)!)-,{*'&)!!);;!!)--*",
".#);)!#+!;-->>&,''{'&@@)@##!@!+&*$!)!)-,',;!!-,'{'>)++!);;)+!);{",
"=#>-@!!);;;;>&,',&--));-)+##+!!&*$#!@;&,,-))-&'',-@+#!);;)!++);*",
"=@,>))->-;;-&&--)++@)-;)+]%#!!!&*$!)->,,>--&,''&;!+#+!);)!++!;-*",
"=@'&;-&&--->>)####@--;!#]%#!!!!&*$@>&,,>->,'',&;!+++!@))@!++)--{",
"~@'>)-&&>>>;@+#++)>,>)+%]+@))!!'*$)&,&>>&'{''&-@++!!!!))))+!)>-{",
"~@,))-&,&>@###!!);>,&)+]+!)))!){.$@>>--&'{''&-)!++!!!!)--)!!;>-'",
"~@>@)>,,>@#$#!!!);>,&;!#+!)!!!){*$+)))>''',&>-)+#+!!!)-&&;!@->;,",
"~@;!)>&>@#%#!!!);>&&-;!+#+!!!!!&*$+!);&,&>>>&>)+#+!);>&,&)!)>&;&",
"~#!!)>>@###!));-&&>;);)+##+!!+#;'$)-,''&-;-&&>)++!)-&,',-))-&>)>",
"=%!!))@##!!)->>&,,-!);)#]#+++]%;*#,{**'>;;>&,>)++)-&,',>)!)->;+>",
"*$+!!###!);>&&&&&>)!))!]]#+!#%#,=@*==*'-;-&,,>@+!;>,,,&;!);-;@#&",
"*$+#%$#!;-&,&>--;)!!)!#%]+!@++).~@.==*&-;>&,&;!+!->&&>;!!);)++@*",
"*$#%$$#)-&,&-;))!!!)!+##!);@@-'.~@*.*'&>>&,&-)++!;---;)!@;)!+)&*",
"*$####!)-&>-;))!!!))!+!@@))@-,,.~@**{',,,,&-)!##!));;;@!!!++;,,*",
"*$#!!!!);--;;;)!!!)!+#!+#+@-&>-*=@'{'','',>)!+##+);;-;+%$%+),'&*",
"{$!)!!!!);----)++!+#%%#++)>>-))'=@'''''''&;!!+#+!)->>@#$$#)&',,*",
"*$))!!!);-->>-)###%$%#)->&&;)!!'=@{''''',-)!+++!)->>)+#%]!>'',,.",
"*#)!!!)->>>--;!]]%$#@-,',>-)!!)*~@{'''',>;!!++!);>-@+@)@!)>,,,,.",
".#))));->-;))!#%%%#),,,&>-;!!!;*~@{'',&>;)!++!);;;@+)&&-)))-&,'.",
".#--;))))@!+#####@-,'&>-;;)!!)-.~@{',>;)!!++!!))@++)&',>-)!)-,'=",
".+>-)!!++#]%#+##@>,,&>;;))!!!;>.~@{'>)!###++!!!@++)&',&>-;@!;,'=",
"=@>)+#+++#%#@@##)>>>-)))))!!!;&.~@'&;!]%%#+++!@++),''&>---))-'{=",
"~@;!]#!!!#+)-)+@));;)!));;!!)-,.~@,-@#%(%#++!)@@;,'',>-;->;)>'{.",
"~@)+#!@)!!)>-@);!!!!!!)-&-));&,.~@>;!]%%##+!!@@-,'',&-;->&-)>,,{",
"=+!+!!)!!)>'-+))!+!!!)-&,>;;>,'=/@>)#%%#+!!!++),'',&--->,&;@);)&",
"=#!!!!!#+;'')#+!!!!);-&,&-;->,'./@>!%%]+))!!##-'''&-;->,,>)!!!!&",
".$!!@!+#!>'&+#!!!);>&,,,>;);>&&*=+)+]]+);))!#@,'',>;;>,,>;@!!!!'",
"*&&&&&&&'*.'>&,'{**.....*&&&'{'*=&&&&&'{*{'&&*...*****.*{,&&&&'*",
